<?xml version="1.0" encoding="UTF-8" standalone="no"?>
<!-- Created with Inkscape (http://www.inkscape.org/) -->

<svg
   xmlns:dc="http://purl.org/dc/elements/1.1/"
   xmlns:cc="http://creativecommons.org/ns#"
   xmlns:rdf="http://www.w3.org/1999/02/22-rdf-syntax-ns#"
   xmlns:svg="http://www.w3.org/2000/svg"
   xmlns="http://www.w3.org/2000/svg"
   xmlns:sodipodi="http://sodipodi.sourceforge.net/DTD/sodipodi-0.dtd"
   xmlns:inkscape="http://www.inkscape.org/namespaces/inkscape"
   width="132.77408mm"
   height="166.40479mm"
   viewBox="0 0 470.45933 589.62325"
   id="svg4221"
   version="1.1"
   inkscape:version="0.91 r13725"
   sodipodi:docname="Icon.svg">
  <defs
     id="defs4223" />
  <sodipodi:namedview
     id="base"
     pagecolor="#ffffff"
     bordercolor="#666666"
     borderopacity="1.0"
     inkscape:pageopacity="0.0"
     inkscape:pageshadow="2"
     inkscape:zoom="0.5"
     inkscape:cx="387.83185"
     inkscape:cy="-249.86487"
     inkscape:document-units="px"
     inkscape:current-layer="layer2"
     showgrid="false"
     inkscape:window-width="1920"
     inkscape:window-height="1017"
     inkscape:window-x="-8"
     inkscape:window-y="-8"
     inkscape:window-maximized="1"
     fit-margin-top="0"
     fit-margin-left="0"
     fit-margin-right="0"
     fit-margin-bottom="0" />
  <metadata
     id="metadata4226">
    <rdf:RDF>
      <cc:Work
         rdf:about="">
        <dc:format>image/svg+xml</dc:format>
        <dc:type
           rdf:resource="http://purl.org/dc/dcmitype/StillImage" />
        <dc:title></dc:title>
      </cc:Work>
    </rdf:RDF>
  </metadata>
  <g
     inkscape:label="Calque 1"
     inkscape:groupmode="layer"
     id="layer1"
     style="display:inline"
     transform="translate(-4.978815e-7,-462.73896)" />
  <g
     inkscape:groupmode="layer"
     id="layer2"
     inkscape:label="Calque 2"
     style="display:inline"
     transform="translate(-4.978815e-7,-462.73896)">
    <g
       id="g4926"
       transform="translate(-97.36021,0.19030472)">
      <path
         inkscape:connector-curvature="0"
         id="path4852"
         d="m 402.04102,641.48242 -48.48829,35.35547 c -1.73596,1.26581 -3.49963,2.53784 -5.19921,3.87109 -1.69959,1.33326 -3.33519,2.72708 -4.8086,4.23438 -1.4734,1.5073 -2.78632,3.12807 -3.84375,4.91602 -0.52871,0.89397 -0.99368,1.83033 -1.38281,2.81445 -0.38913,0.98412 -0.70192,2.01788 -0.92774,3.10547 l -14.90039,14.39453 c -0.8025,2.95958 -1.65643,5.74459 -2.57812,8.36719 -0.92169,2.62259 -1.91041,5.0814 -2.97852,7.38867 -1.0681,2.30727 -2.21528,4.46296 -3.45703,6.47656 -1.24175,2.0136 -2.57691,3.88537 -4.01953,5.62695 -1.44262,1.74159 -2.99334,3.35253 -4.66406,4.84375 -1.67072,1.49123 -3.46263,2.86248 -5.38867,4.125 -1.92605,1.26253 -3.98671,2.41718 -6.19532,3.47266 -2.2086,1.05548 -4.56559,2.01272 -7.08398,2.88281 -3.70462,1.27994 -7.34799,2.49808 -10.91406,3.42188 -1.78304,0.4619 -3.54746,0.84944 -5.28906,1.13476 -1.74161,0.28533 -3.4606,0.46914 -5.15626,0.51953 -1.69565,0.0504 -3.36654,-0.0325 -5.01171,-0.27539 -1.64518,-0.24289 -3.2653,-0.6457 -4.85547,-1.24023 -1.59018,-0.59454 -3.151,-1.38023 -4.68164,-2.38477 -1.53065,-1.00454 -3.03146,-2.22827 -4.49805,-3.70117 -0.69947,2.10355 -1.28324,4.22831 -1.77344,6.37109 -0.49019,2.14279 -0.88642,4.30357 -1.20508,6.47852 -0.63731,4.3499 -0.96892,8.75725 -1.14648,13.19336 -0.35513,8.87221 -0.0926,17.8589 -0.41992,26.73633 l 42.04687,39.01758 c 4.85845,4.50828 9.44135,8.51826 13.82032,12 2.18948,1.74086 4.32838,3.34935 6.42578,4.82226 2.09739,1.47291 4.15195,2.8104 6.17578,4.00781 2.02383,1.19742 4.01558,2.25556 5.98437,3.16993 1.96879,0.91436 3.91539,1.68481 5.84766,2.30859 1.93227,0.62378 3.85135,1.10013 5.76562,1.42578 1.91428,0.32565 3.82348,0.50152 5.73829,0.52149 1.9148,0.02 3.83568,-0.11496 5.76953,-0.40821 1.93385,-0.29325 3.88014,-0.74535 5.85156,-1.35937 1.97142,-0.61402 3.96662,-1.38971 5.99414,-2.33203 2.02752,-0.94233 4.08732,-2.0519 6.18945,-3.33008 2.10214,-1.27818 4.24809,-2.72608 6.44336,-4.34766 2.19528,-1.62158 4.44111,-3.41614 6.74805,-5.38867 2.30694,-1.97253 4.6742,-4.12211 7.11133,-6.45313 2.43712,-2.33101 4.94346,-4.84396 7.52929,-7.54101 l 46.97266,-48.99219 c -0.65082,-0.85571 -1.18142,-1.78448 -1.58398,-2.79297 -0.40256,-1.00848 -0.67698,-2.09596 -0.81446,-3.26757 -0.13748,-1.17162 -0.13855,-2.42836 0.006,-3.77344 0.14442,-1.34509 0.43383,-2.77969 0.87696,-4.3086 l -28.03125,14.64844 14.14257,-12.88086 c 3.43826,-3.13127 6.36582,-6.12008 8.9043,-9.00781 2.53848,-2.88773 4.68807,-5.67401 6.56836,-8.39844 1.88029,-2.72443 3.49139,-5.38598 4.95508,-8.02734 1.46369,-2.64137 2.77968,-5.26186 4.06836,-7.90039 C 440.3706,737.32847 439.94235,730.35889 439.381,724 c -0.56135,-6.35889 -1.25633,-12.10805 -2.10352,-17.35742 -0.84719,-5.24938 -1.84497,-10.00077 -3.01172,-14.36719 -1.16674,-4.36642 -2.50341,-8.34661 -4.02343,-12.05664 -1.52002,-3.71003 -3.22385,-7.14949 -5.13086,-10.42969 -1.90701,-3.28019 -4.01603,-6.40158 -6.34375,-9.47851 -2.32772,-3.07693 -4.87411,-6.10876 -7.65625,-9.20899 -2.78214,-3.10022 -5.80003,-6.26906 -9.07031,-9.61914 z"
         style="display:inline;fill:none;fill-rule:evenodd;stroke:none;stroke-width:0.1;stroke-linecap:butt;stroke-linejoin:miter;stroke-miterlimit:4;stroke-dasharray:none;stroke-opacity:1" />
      <path
         inkscape:connector-curvature="0"
         id="path4857"
         d="m 357.32227,622.89844 c 0.19894,1.58859 0.29775,3.17283 0.29101,4.75 -0.007,1.57716 -0.11894,3.1459 -0.3418,4.70703 -0.22286,1.56113 -0.55643,3.1138 -1.00586,4.6543 -0.44942,1.54049 -1.01473,3.06872 -1.70117,4.58398 -0.68643,1.51526 -1.49579,3.0185 -2.42968,4.50391 -0.9339,1.48541 -1.99376,2.95333 -3.18555,4.40429 -1.19179,1.45096 -2.51448,2.88497 -3.97461,4.29688 -1.46013,1.4119 -3.05797,2.80168 -4.79688,4.16992 -4.48719,3.5307 -9.06509,6.92812 -13.55859,10.40039 -4.4935,3.47227 -8.90092,7.01937 -13.04687,10.84961 2.74759,-0.13092 5.24392,-0.54074 7.55078,-1.16211 2.30685,-0.62137 4.42263,-1.45427 6.41015,-2.42578 1.98752,-0.97151 3.84714,-2.08232 5.63672,-3.26367 1.78958,-1.18136 3.50961,-2.4327 5.22266,-3.6836 l 49.64258,-36.25 c -2.21286,-1.36331 -4.53706,-2.5704 -6.95508,-3.64648 -2.41802,-1.07608 -4.92868,-2.02096 -7.51367,-2.86328 -2.585,-0.84232 -5.24523,-1.5821 -7.95899,-2.24414 -2.71376,-0.66205 -5.48083,-1.246 -8.28515,-1.78125 z"
         style="display:inline;fill:none;fill-rule:evenodd;stroke:none;stroke-width:0.1;stroke-linecap:butt;stroke-linejoin:miter;stroke-miterlimit:4;stroke-dasharray:none;stroke-opacity:1" />
      <path
         inkscape:connector-curvature="0"
         id="path4780"
         d="m 334.45898,462.55273 c -1.52872,-0.0137 -3.05648,0.007 -4.58398,0.0645 -48.87998,1.82955 -96.88492,39.8838 -128.08984,108.67383 l -96.07032,211.78515 c -16.928224,37.31764 -6.399444,71.70695 16.07032,90.71485 L 332.65625,1052.1719 545.48242,871.79688 c 21.93095,-18.587 27.47579,-59.82846 17.67774,-81.31641 L 463.21484,571.29102 C 429.59558,497.56116 381.84944,462.97884 334.45898,462.55273 Z m 22.86329,160.34571 c 2.80432,0.53525 5.57139,1.1192 8.28515,1.78125 2.71376,0.66204 5.37399,1.40182 7.95899,2.24414 2.58499,0.84232 5.09565,1.7872 7.51367,2.86328 2.41802,1.07608 4.74222,2.28317 6.95508,3.64648 l -49.64258,36.25 c -1.71305,1.2509 -3.43308,2.50224 -5.22266,3.6836 -1.78958,1.18135 -3.6492,2.29216 -5.63672,3.26367 -1.98752,0.97151 -4.1033,1.80441 -6.41015,2.42578 -2.30686,0.62137 -4.80319,1.03119 -7.55078,1.16211 4.14595,-3.83024 8.55337,-7.37734 13.04687,-10.84961 4.4935,-3.47227 9.0714,-6.86969 13.55859,-10.40039 1.73891,-1.36824 3.33675,-2.75802 4.79688,-4.16992 1.46013,-1.41191 2.78282,-2.84592 3.97461,-4.29688 1.19179,-1.45096 2.25165,-2.91888 3.18555,-4.40429 0.93389,-1.48541 1.74325,-2.98865 2.42968,-4.50391 0.68644,-1.51526 1.25175,-3.04349 1.70117,-4.58398 0.44944,-1.5405 0.783,-3.09317 1.00586,-4.6543 0.22286,-1.56113 0.33507,-3.12987 0.3418,-4.70703 0.007,-1.57717 -0.0921,-3.16141 -0.29101,-4.75 z m 44.71875,18.58398 c 26.16226,26.80065 36.16486,41.98126 38.63867,103.54102 -5.15473,10.55415 -10.74306,20.8089 -24.4961,33.33398 l -14.14257,12.88086 28.03125,-14.64844 c -1.77252,6.11564 -1.08767,10.71974 1.51562,14.14258 l -46.97266,48.99219 c -41.37329,43.15276 -62.52697,38.97059 -101.39453,2.9043 l -42.04687,-39.01758 c 0.65461,-17.75486 -1.05083,-35.95091 4.54492,-52.7793 11.73274,11.78321 25.58777,7.64513 40.40625,2.52539 20.14708,-6.96074 29.94521,-19.50694 36.36523,-43.18359 l 14.90039,-14.39453 c 1.80656,-8.70073 9.21827,-13.87819 16.16211,-18.94141 l 48.48829,-35.35547 z"
         style="fill:#3f4145;fill-opacity:1;fill-rule:evenodd;stroke:none;stroke-width:1px;stroke-linecap:butt;stroke-linejoin:miter;stroke-opacity:1" />
      <path
         inkscape:connector-curvature="0"
         id="path4830"
         d="m 326.62109,571.95508 c -1.39438,0.0152 -2.78853,0.0539 -4.18164,0.11719 -34.67279,1.5759 -68.64713,18.13182 -86.82226,53.5 -9.95342,19.36902 -52.71209,121.6263 -61.8711,168.69531 -10.21775,52.50993 16.22884,127.52932 52.02344,136.87695 25.7645,13.82491 48.5813,30.17641 87.80274,32.4668 l -52.67969,4.46484 c 27.61921,27.79812 78.56995,61.36423 147.71484,0 34.50148,-30.61911 59.00588,-69.41886 83.33594,-105.11719 16.26804,-23.86932 7.90873,-38.46865 1.76953,-54.80078 L 427.54688,632.13867 c -14.33128,-38.12553 -57.7,-60.65481 -100.92579,-60.18359 z m 30.70118,50.94336 c 11.2173,2.14102 21.86148,5.08188 30.71289,10.53515 l -0.006,0.004 c 2.7861,1.34472 5.20317,2.68849 7.46484,4.0332 2.25778,1.3424 4.36023,2.68494 6.52539,4.02735 l 0.0215,-0.0156 c 3.27028,3.35008 6.28817,6.51892 9.07031,9.61914 2.78214,3.10023 5.32853,6.13206 7.65625,9.20899 2.32772,3.07693 4.43674,6.19832 6.34375,9.47851 1.90701,3.2802 3.61084,6.71966 5.13086,10.42969 1.52002,3.71003 2.85669,7.69022 4.02343,12.05664 1.16675,4.36642 2.16453,9.11781 3.01172,14.36719 0.84719,5.24937 1.54217,10.99853 2.10352,17.35742 0.56135,6.35889 0.9896,13.32847 1.29883,21.02344 -1.28868,2.63853 -2.60467,5.25902 -4.06836,7.90039 -1.46369,2.64136 -3.07479,5.30291 -4.95508,8.02734 -1.88029,2.72443 -4.02988,5.51071 -6.56836,8.39844 -2.53848,2.88773 -5.46604,5.87654 -8.9043,9.00781 l -14.14257,12.88086 28.03125,-14.64844 c -0.44313,1.52891 -0.73254,2.96351 -0.87696,4.3086 -0.14441,1.34508 -0.1432,2.60181 -0.006,3.77344 0.13748,1.1716 0.4119,2.25909 0.81446,3.26757 0.40256,1.00849 0.93316,1.93726 1.58398,2.79297 L 420.63086,802.16016 432.5,853.79102 c -0.34447,3.55021 -0.37635,6.94398 -1.08789,10.67773 -0.35577,1.86687 -0.88224,3.81952 -1.70117,5.91797 -0.81893,2.09845 -1.93126,4.34304 -3.46094,6.79687 l -9.46484,13.75 c -0.50016,0.88996 -1.32521,2.36704 -2.46094,4.21094 -1.13573,1.84391 -2.58194,4.05385 -4.32617,6.41406 -1.74424,2.36022 -3.78566,4.86972 -6.11133,7.3086 -1.16284,1.21944 -2.3961,2.42107 -3.69922,3.57812 -1.30312,1.15705 -2.67521,2.2706 -4.11523,3.31055 l -15.71485,13.21289 c -0.9307,0.77566 -1.84649,1.6471 -2.875,2.50195 -1.02851,0.85485 -2.16973,1.69335 -3.54883,2.40625 -1.3791,0.71291 -2.99604,1.30058 -4.97851,1.65039 -1.98247,0.34982 -4.33131,0.46293 -7.16992,0.22852 l -42.32032,-9.28711 -11.07226,1.25 -11.42774,-5.17773 -18.75,-28.75 c -3.54047,-2.21526 -6.82142,-4.60679 -9.87304,-7.15235 -3.05162,-2.54556 -5.87459,-5.24459 -8.5,-8.07812 -2.62542,-2.83354 -5.05261,-5.80167 -7.31446,-8.88086 -2.26184,-3.07919 -4.35743,-6.27022 -6.31836,-9.55274 -1.96092,-3.28251 -3.78711,-6.65609 -5.50976,-10.09961 -1.72265,-3.44351 -3.34166,-6.95734 -4.88867,-10.51953 -3.09403,-7.12437 -5.90061,-14.44397 -8.66797,-21.78906 2.3327,-13.12203 7.30136,-22.42215 14.24023,-28.86523 0.0197,-4.00243 0.0518,-8.00195 0.21094,-11.97852 0.17756,-4.43611 0.50917,-8.84346 1.14648,-13.19336 0.31866,-2.17495 0.71489,-4.33573 1.20508,-6.47852 0.21416,-0.93612 0.52367,-1.85421 0.77539,-2.7832 l -11.86328,-7.41406 63.92774,-113.21484 60.22656,-0.23633 c 0.63266,-3.51296 0.75965,-7.07019 0.31055,-10.65625 z"
         style="fill:#4a8ac8;fill-opacity:1;fill-rule:evenodd;stroke:none;stroke-width:0.1;stroke-linecap:butt;stroke-linejoin:miter;stroke-miterlimit:4;stroke-dasharray:none;stroke-opacity:1" />
      <path
         sodipodi:nodetypes="cccscssccc"
         inkscape:connector-curvature="0"
         id="path4786"
         d="M 306.42857,922.45149 310.35714,910.21935 300,910.04078 c -14.04313,-28.89922 -47.3068,-22.42208 -61.07143,-7.32143 -24.07783,26.41486 -41.87116,53.15337 -45,82.5 11.3187,-18.11924 23.45286,-35.53572 42.32143,-35.53572 l 23.57143,0 c 14.31681,0 21.29308,-8.63537 29.10714,-15.17857 4.34452,4.48188 10.19533,3.31513 16.42857,0.71429 z"
         style="fill:#ffffff;fill-opacity:1;fill-rule:evenodd;stroke:none;stroke-width:1px;stroke-linecap:butt;stroke-linejoin:miter;stroke-opacity:1" />
      <path
         sodipodi:nodetypes="cccsccsccccccc"
         inkscape:connector-curvature="0"
         id="path4788"
         d="m 302.79323,933.79555 c 7.90035,5.43167 15.02552,12.85667 25.12754,12.62691 -4.44526,-4.79204 -8.4519,-9.854 -8.5863,-17.29887 3.97571,8.22221 8.5863,17.29887 25.63262,16.92006 9.40972,-0.20911 14.92793,-5.59317 21.33948,-9.09137 -0.9326,-5.02419 -5.0054,-8.33555 -9.59645,-11.36422 -9.26353,-0.42526 -17.84917,-1.21414 -24.73342,-5.54052 -4.68054,-2.94147 -8.7913,-0.10059 -12.7685,1.1211 1.83268,-3.45682 5.95911,-5.96914 13.5108,-7.07107 4.88888,-1.80063 7.16547,-4.77678 8.71256,-8.08122 l 1.26269,-5.3033 c -20.71363,-1.72841 -26.89734,6.12675 -32.07234,14.64722 -1.58253,4.17652 -2.90138,7.81826 -5.55584,8.71256 z"
         style="fill:#ffffff;fill-opacity:1;fill-rule:evenodd;stroke:none;stroke-width:1px;stroke-linecap:butt;stroke-linejoin:miter;stroke-opacity:1" />
      <path
         sodipodi:nodetypes="ccsccccc"
         inkscape:connector-curvature="0"
         id="path4792"
         d="m 341.78572,901.38006 c 12.60312,-16.70624 18.43902,-9.92871 26.51785,-16.25 0.0463,2.41297 0.15224,5.15977 0.44643,6.60714 1.41048,6.93942 4.32823,14.3835 -1.25,20 l -13.92857,11.33929 c -5.98989,0.97804 -11.97482,-2.70338 -19.60325,-5.21927 3.52813,-4.16807 6.34419,-8.51415 7.19254,-13.35216 z"
         style="fill:#ffffff;fill-opacity:1;fill-rule:evenodd;stroke:none;stroke-width:1px;stroke-linecap:butt;stroke-linejoin:miter;stroke-opacity:1" />
      <path
         sodipodi:nodetypes="csssccc"
         inkscape:connector-curvature="0"
         id="path4790"
         d="m 362.39223,920.03222 10.48033,-10.35406 c 1.682,-1.66174 6.97643,-2.11581 9.72272,-1e-5 2.25631,1.73831 4.31634,1.50529 7.57614,0.12627 3.73363,-1.57946 10.53391,-1.64537 13.25825,-0.3788 -7.50061,8.35048 -15.70515,15.46512 -25.88516,22.4759 -4.08498,-3.9419 -20.04511,-5.41323 -15.15228,-11.8693 z"
         style="fill:#ffffff;fill-opacity:1;fill-rule:evenodd;stroke:none;stroke-width:1px;stroke-linecap:butt;stroke-linejoin:miter;stroke-opacity:1" />
      <path
         sodipodi:nodetypes="ssssccsccs"
         inkscape:connector-curvature="0"
         id="path4794"
         d="m 379.62514,906.32987 c 2.56644,0.61986 4.65707,2.46343 7.16154,2.20555 4.00465,-0.41234 6.36533,-2.58236 11.69546,-2.95893 3.45625,-0.24419 2.49108,-5.4283 2.67858,-7.58929 0.77543,-8.93712 3.66601,-21.13096 9.28571,-30.08929 -2.79372,-6.47443 -2.09859,-15.58216 -1.875,-24.64285 -6.73381,1.79938 -32.09243,18.92769 -35.89286,32.14286 -2.10481,7.31903 -0.99909,17.56482 0.008,26.78974 0.25028,2.74594 0.2959,4.2771 -0.097,5.4424 2.26848,-1.26367 4.58691,-1.89159 7.03557,-1.30019 z"
         style="fill:#ffffff;fill-opacity:1;fill-rule:evenodd;stroke:none;stroke-width:1px;stroke-linecap:butt;stroke-linejoin:miter;stroke-opacity:1" />
      <path
         sodipodi:nodetypes="csssc"
         inkscape:connector-curvature="0"
         id="path4796"
         d="m 430.71428,868.07649 c -4.46989,11.30952 -9.15455,21.15359 -18.39285,33.03571 -2.78809,3.58599 -5.4126,2.39625 -6.07143,-0.71428 -2.00143,-9.44925 1.43168,-18.21953 4.64286,-26.42857 2.54352,-6.50226 12.80243,-4.17596 19.82142,-5.89286 z"
         style="fill:#ffffff;fill-opacity:1;fill-rule:evenodd;stroke:none;stroke-width:1px;stroke-linecap:butt;stroke-linejoin:miter;stroke-opacity:1" />
      <path
         inkscape:connector-curvature="0"
         id="path4802"
         d="m 440.3457,745.69336 c -5.06683,10.3191 -10.70069,20.40457 -24.16211,32.66406 l -14.14257,12.88086 28.03125,-14.64844 c -1.77252,6.11564 -1.08767,10.71974 1.51562,14.14258 l -20.375,21.25 1.6875,48.07227 c 0.28374,8.08665 15.22962,7.07152 18.43555,2.90429 11.16146,-48.2 10.54256,-83.05443 9.00976,-117.26562 z"
         style="fill:#ffffff;fill-opacity:1;fill-rule:evenodd;stroke:none;stroke-width:1px;stroke-linecap:butt;stroke-linejoin:miter;stroke-opacity:1" />
      <path
         sodipodi:nodetypes="sssccccsscccccsssssssssccs"
         inkscape:connector-curvature="0"
         id="path4812"
         d="m 316.01172,617.27539 c -19.95935,0.40164 -40.63576,4.78994 -57.08399,13.6582 -36.05349,19.43868 -40.81043,68.40092 -55.12109,107.26563 -5.24096,14.23332 -19.5093,22.87341 -34.87891,27.73437 12.49468,3.26934 25.60605,3.60965 40,-2.14257 10.13363,56.40232 33.64878,88.7202 65.17969,106.60742 -13.44885,-19.3362 -31.39269,-33.34938 -32.93359,-66.78711 0.3273,-8.87743 0.0648,-17.86412 0.41992,-26.73633 0.17756,-4.43611 0.50917,-8.84346 1.14648,-13.19336 0.31866,-2.17495 0.71489,-4.33573 1.20508,-6.47852 1.20791,-4.41752 1.87423,-7.82696 3.26451,-12.71372 13.72149,-41.97844 33.57861,-56.9044 57.07534,-75.34096 -23.2466,37.60379 -30.88525,58.36833 -28.57032,68.39258 10.77746,-19.42618 19.48568,-39.21052 37.85743,-57.32227 4.14595,-3.83024 8.55337,-7.37734 13.04687,-10.84961 4.4935,-3.47227 9.0714,-6.86969 13.55859,-10.40039 1.73891,-1.36824 3.33675,-2.75802 4.79688,-4.16992 1.46013,-1.41191 2.78282,-2.84592 3.97461,-4.29688 1.19179,-1.45096 2.25165,-2.91888 3.18555,-4.40429 0.93389,-1.48541 1.74325,-2.98865 2.42968,-4.50391 0.68644,-1.51526 1.25175,-3.04349 1.70117,-4.58398 0.44943,-1.5405 0.783,-3.09317 1.00586,-4.6543 0.22286,-1.56113 0.33507,-3.12987 0.3418,-4.70703 0.007,-1.57717 -0.0921,-3.16141 -0.29101,-4.75 0.22678,0.0433 0.44361,0.10057 0.66992,0.14453 -12.15541,-4.063 -26.84775,-6.07209 -41.98047,-5.76758 z"
         style="fill:#ffffff;fill-opacity:1;fill-rule:evenodd;stroke:none;stroke-width:1px;stroke-linecap:butt;stroke-linejoin:miter;stroke-opacity:1" />
    </g>
  </g>
</svg>
