<?xml version="1.0" encoding="UTF-8" standalone="no"?>
<!-- Created with Inkscape (http://www.inkscape.org/) -->

<svg
      xmlns:dc="http://purl.org/dc/elements/1.1/"
      xmlns:cc="http://creativecommons.org/ns#"
      xmlns:rdf="http://www.w3.org/1999/02/22-rdf-syntax-ns#"
      xmlns:svg="http://www.w3.org/2000/svg"
      xmlns="http://www.w3.org/2000/svg"
      xmlns:sodipodi="http://sodipodi.sourceforge.net/DTD/sodipodi-0.dtd"
      xmlns:inkscape="http://www.inkscape.org/namespaces/inkscape"
      width="137.62442mm"
      height="80.79425mm"
      viewBox="0 0 487.64558 286.27884"
      id="svg2"
      version="1.1"
      inkscape:version="0.91 r13725"
      sodipodi:docname="Icon.svg">
     <defs
           id="defs4" />
     <sodipodi:namedview
           id="base"
           pagecolor="#ffffff"
           bordercolor="#666666"
           borderopacity="1.0"
           inkscape:pageopacity="0.0"
           inkscape:pageshadow="2"
           inkscape:zoom="0.9899495"
           inkscape:cx="471.33952"
           inkscape:cy="6.2559755"
           inkscape:document-units="px"
           inkscape:current-layer="layer1"
           showgrid="false"
           fit-margin-top="0"
           fit-margin-left="0"
           fit-margin-right="0"
           fit-margin-bottom="0"
           inkscape:window-width="1920"
           inkscape:window-height="1017"
           inkscape:window-x="-8"
           inkscape:window-y="-8"
           inkscape:window-maximized="1">
          <inkscape:grid
                type="xygrid"
                id="grid4149"
                originx="-12.56883"
                originy="-101.7563" />
     </sodipodi:namedview>
     <metadata
           id="metadata7">
          <rdf:RDF>
               <cc:Work
                     rdf:about="">
                    <dc:format>image/svg+xml</dc:format>
                    <dc:type
                          rdf:resource="http://purl.org/dc/dcmitype/StillImage" />
                    <dc:title></dc:title>
               </cc:Work>
          </rdf:RDF>
     </metadata>
     <g
           inkscape:label="Calque 1"
           inkscape:groupmode="layer"
           id="layer1"
           transform="translate(24.574028,-587.1842)">
          <g
                id="g4238">
               <g
                     style="fill:#fff348;fill-opacity:1;stroke:none"
                     id="g4232">
                    <path
                          style="fill:#fff348;fill-opacity:1;fill-rule:evenodd;stroke:none;stroke-width:0.2;stroke-linecap:butt;stroke-linejoin:miter;stroke-miterlimit:4;stroke-dasharray:none;stroke-opacity:1"
                          d="m 217.85714,805.21933 7,0 c 1.88156,-30.33528 13,-51 33.30357,-61.375 23.50356,-12.01017 50.69643,-15.625 52.69643,27.375 1.74494,-0.30811 2.76189,-1.34421 3.19769,-2.96146 6.80231,-86.03854 -35.19769,-82.03854 -66.19769,-89.03854 -6,4 -4,27 -17,27 l -19,0 z"
                          id="path4159"
                          inkscape:connector-curvature="0"
                          sodipodi:nodetypes="ccscccscc" />
                    <path
                          sodipodi:nodetypes="ccscccscc"
                          inkscape:connector-curvature="0"
                          id="path4161"
                          d="m 220.78104,805.21933 -7,0 c -1.88156,-30.33528 -13,-51 -33.30357,-61.375 -23.50356,-12.01017 -50.69643,-15.625 -52.69643,27.375 -1.74494,-0.30811 -2.76189,-1.34421 -3.19769,-2.96146 -6.80231,-86.03854 35.19769,-82.03854 66.19769,-89.03854 6,4 4,27 17,27 l 19,0 z"
                          style="fill:#fff348;fill-opacity:1;fill-rule:evenodd;stroke:none;stroke-width:0.2;stroke-linecap:butt;stroke-linejoin:miter;stroke-miterlimit:4;stroke-dasharray:none;stroke-opacity:1" />
                    <rect
                          style="opacity:1;fill:#fff348;fill-opacity:1;fill-rule:nonzero;stroke:none;stroke-width:0.22043397;stroke-linecap:butt;stroke-linejoin:bevel;stroke-miterlimit:4;stroke-dasharray:none;stroke-opacity:1"
                          id="rect4181"
                          width="55.344891"
                          height="9.9527483"
                          x="422.60452"
                          y="671.0246"
                          transform="matrix(0.94722224,0.32057765,-0.38475469,0.92301887,0,0)"
                          ry="4.9763741" />
                    <rect
                          ry="4.9763741"
                          transform="matrix(-0.94722224,0.32057765,0.38475469,0.92301887,0,0)"
                          y="812.03723"
                          x="16.595922"
                          height="9.9527483"
                          width="55.344891"
                          id="rect4185"
                          style="opacity:1;fill:#fff348;fill-opacity:1;fill-rule:nonzero;stroke:none;stroke-width:0.22043397;stroke-linecap:butt;stroke-linejoin:bevel;stroke-miterlimit:4;stroke-dasharray:none;stroke-opacity:1" />
               </g>
               <g
                     style="fill:#dd9900;fill-opacity:1;stroke:none"
                     id="g4205">
                    <path
                          inkscape:connector-curvature="0"
                          style="fill:#dd9900;fill-opacity:1;fill-rule:evenodd;stroke:none;stroke-width:0.2;stroke-linecap:butt;stroke-linejoin:miter;stroke-miterlimit:4;stroke-dasharray:none;stroke-opacity:1"
                          d="m 313.66769,650.28186 c -3.69968,-1.03316 -4.81055,6.9375 -5.81055,13.9375 l 7.12305,60.94727 9.87695,-6.56836 c 0.3919,-1.09075 0.65113,-2.38953 0.88086,-3.74414 0.22973,-1.35462 0.43,-2.7657 0.70703,-4.08204 0.27703,-1.31633 0.63028,-2.53776 1.16406,-3.51367 0.26689,-0.48795 0.57887,-0.91357 0.94922,-1.25976 0.37036,-0.3462 0.79883,-0.61263 1.29883,-0.7793 l 15,-5 4.82617,8.04297 -3.82617,-21.04297 c -10.14145,-13.80395 -21.04735,-33.826 -32.18945,-36.9375 z"
                          id="path4163" />
                    <path
                          inkscape:connector-curvature="0"
                          id="path4178"
                          d="m 125.0866,650.28186 c 3.69968,-1.03316 4.81055,6.9375 5.81055,13.9375 l -7.12305,60.94727 -9.87695,-6.56836 c -0.3919,-1.09075 -0.65113,-2.38953 -0.88086,-3.74414 -0.22973,-1.35462 -0.43,-2.7657 -0.70703,-4.08204 -0.27703,-1.31633 -0.63028,-2.53776 -1.16406,-3.51367 -0.26689,-0.48795 -0.57887,-0.91357 -0.94922,-1.25976 -0.37036,-0.3462 -0.79883,-0.61263 -1.29883,-0.7793 l -15,-5 -4.82617,8.04297 3.82617,-21.04297 c 10.14145,-13.80395 21.04735,-33.826 32.18945,-36.9375 z"
                          style="fill:#dd9900;fill-opacity:1;fill-rule:evenodd;stroke:none;stroke-width:0.2;stroke-linecap:butt;stroke-linejoin:miter;stroke-miterlimit:4;stroke-dasharray:none;stroke-opacity:1" />
                    <g
                          style="fill:#dd9900;fill-opacity:1;stroke:none"
                          id="g4191">
                         <path
                               sodipodi:nodetypes="cccccccccc"
                               inkscape:connector-curvature="0"
                               id="path4151"
                               d="m 241.85714,774.21933 c 2,34 62,27 61,-12 3.77538,1.43166 3,10 3,15 1.71638,0.74571 3.40202,1.03026 5,0 -3,28 -42,63 -68,67 -2.44303,-6.93418 -7.06551,-12.56069 -12,-18 l -16.81282,0 0.81282,-13 13.51523,0 c 1.91412,-14.91906 5.06472,-28.91868 13.48477,-39 z"
                               style="fill:#dd9900;fill-opacity:1;fill-rule:evenodd;stroke:none;stroke-width:0.2;stroke-linecap:butt;stroke-linejoin:miter;stroke-miterlimit:4;stroke-dasharray:none;stroke-opacity:1" />
                         <path
                               style="fill:#dd9900;fill-opacity:1;fill-rule:evenodd;stroke:none;stroke-width:0.2;stroke-linecap:butt;stroke-linejoin:miter;stroke-miterlimit:4;stroke-dasharray:none;stroke-opacity:1"
                               d="m 197.0596,774.21933 c -2,34 -62,27 -61,-12 -3.77538,1.43166 -3,10 -3,15 -1.71638,0.74571 -3.40202,1.03026 -5,0 3,28 42,63 68,67 2.44303,-6.93418 7.06551,-12.56069 12,-18 l 16.81282,0 -0.81282,-13 -13.51523,0 c -1.91412,-14.91906 -5.06472,-28.91868 -13.48477,-39 z"
                               id="path4153"
                               inkscape:connector-curvature="0"
                               sodipodi:nodetypes="cccccccccc" />
                         <path
                               sodipodi:nodetypes="cccccc"
                               inkscape:connector-curvature="0"
                               id="path4155"
                               d="m 215.85714,829.21933 10.31567,0 12.68433,18.43179 c -5,11.56821 -6,14.56821 -12,14.56821 l -12,0 z"
                               style="fill:#dd9900;fill-opacity:1;fill-rule:evenodd;stroke:none;stroke-width:0.2;stroke-linecap:butt;stroke-linejoin:miter;stroke-miterlimit:4;stroke-dasharray:none;stroke-opacity:1" />
                         <path
                               style="fill:#dd9900;fill-opacity:1;fill-rule:evenodd;stroke:none;stroke-width:0.2;stroke-linecap:butt;stroke-linejoin:miter;stroke-miterlimit:4;stroke-dasharray:none;stroke-opacity:1"
                               d="m 222.97089,829.21933 -10.31567,0 -12.68433,18.43179 c 5,11.56821 6,14.56821 12,14.56821 l 12,0 z"
                               id="path4157"
                               inkscape:connector-curvature="0"
                               sodipodi:nodetypes="cccccc" />
                         <path
                               sodipodi:nodetypes="csscccc"
                               inkscape:connector-curvature="0"
                               id="path4148"
                               d="m 227.56288,702.21934 c 10.29426,0 11.82271,-23.00578 11.37881,-26.92449 l -3.30776,-29.20051 c -0.42365,-3.7399 -3.77679,-8.875 -10.00893,-8.875 l -10.76786,0 1,65 z"
                               style="fill:#dd9900;fill-opacity:1;fill-rule:evenodd;stroke:none;stroke-width:0.2;stroke-linecap:butt;stroke-linejoin:miter;stroke-miterlimit:4;stroke-dasharray:none;stroke-opacity:1" />
                         <path
                               style="fill:#dd9900;fill-opacity:1;fill-rule:evenodd;stroke:none;stroke-width:0.2;stroke-linecap:butt;stroke-linejoin:miter;stroke-miterlimit:4;stroke-dasharray:none;stroke-opacity:1"
                               d="m 211.30166,702.21934 c -10.29426,0 -11.82271,-23.00578 -11.37881,-26.92449 l 3.30776,-29.20051 c 0.42365,-3.7399 3.77679,-8.875 10.00893,-8.875 l 10.76786,0 -1,65 z"
                               id="path4150"
                               inkscape:connector-curvature="0"
                               sodipodi:nodetypes="csscccc" />
                         <path
                               transform="translate(-37.142857,463.21936)"
                               id="path4158"
                               d="m 250.11914,123.96484 c -36.57886,7.67738 -61.66222,26.84912 -76.69336,56.07422 2.97826,10.93273 5.65423,20.27919 0.63086,36.68164 -1.05112,3.43213 -0.98818,8.15723 -1.52539,11.48438 l 26.70117,-13.12696 a 58.019657,67.031166 0 0 1 0.41602,-3.18164 58.019657,67.031166 0 0 1 1.43554,-6.49218 58.019657,67.031166 0 0 1 1.98829,-6.29297 58.019657,67.031166 0 0 1 2.52148,-6.03321 58.019657,67.031166 0 0 1 3.03125,-5.71289 58.019657,67.031166 0 0 1 3.50977,-5.33398 58.019657,67.031166 0 0 1 3.95312,-4.90234 58.019657,67.031166 0 0 1 4.35742,-4.42188 58.019657,67.031166 0 0 1 4.71875,-3.89844 58.019657,67.031166 0 0 1 5.0293,-3.33203 58.019657,67.031166 0 0 1 5.29492,-2.73828 58.019657,67.031166 0 0 1 5.50391,-2.11328 58.019657,67.031166 0 0 1 5.6582,-1.4668 58.019657,67.031166 0 0 1 5.75781,-0.80664 58.019657,67.031166 0 0 1 4.10352,-0.16797 58.019657,67.031166 0 0 1 5.79297,0.33399 58.019657,67.031166 0 0 1 0.87695,0.15234 l -4.44531,-34.70508 -8.61719,0 z"
                               style="fill:#dd9900;fill-opacity:1;fill-rule:evenodd;stroke:none;stroke-width:0.2;stroke-linecap:butt;stroke-linejoin:miter;stroke-miterlimit:4;stroke-dasharray:none;stroke-opacity:1"
                               inkscape:connector-curvature="0" />
                         <path
                               id="path4156"
                               transform="translate(-37.142857,463.21936)"
                               d="m 254.73242,123.96484 -4.4414,34.6836 a 58.019657,67.031166 0 0 1 6.2207,-0.46485 58.019657,67.031166 0 0 1 57.28516,56.67774 l 27.14062,13.34375 c -0.53721,-3.32715 -0.47427,-8.05225 -1.52539,-11.48438 -5.02337,-16.40245 -2.3474,-25.74891 0.63086,-36.68164 -15.03114,-29.2251 -40.11645,-48.39684 -76.69531,-56.07422 l -8.61524,0 z"
                               style="fill:#dd9900;fill-opacity:1;fill-rule:evenodd;stroke:none;stroke-width:0.2;stroke-linecap:butt;stroke-linejoin:miter;stroke-miterlimit:4;stroke-dasharray:none;stroke-opacity:1"
                               inkscape:connector-curvature="0" />
                    </g>
               </g>
               <g
                     style="fill:#9de400;fill-opacity:1;stroke:none"
                     id="g4218">
                    <path
                          inkscape:connector-curvature="0"
                          style="fill:#9de400;fill-opacity:1;fill-rule:evenodd;stroke:none;stroke-width:0.2;stroke-linecap:butt;stroke-linejoin:miter;stroke-miterlimit:4;stroke-dasharray:none;stroke-opacity:1"
                          d="m 349.68331,708.26233 -4.82617,-8.04297 -15,5 c -0.5,0.16667 -0.92847,0.4331 -1.29883,0.7793 -0.37035,0.34619 -0.68233,0.77181 -0.94922,1.25976 -0.53378,0.97591 -0.88703,2.19734 -1.16406,3.51367 -0.27703,1.31634 -0.4773,2.72742 -0.70703,4.08204 -0.22973,1.35461 -0.48896,2.65339 -0.88086,3.74414 l -9.87695,6.56836 1.87695,16.05273 10,-15 5,0 5,-8 15,-5 -2,-4 -0.17383,-0.95703 z"
                          id="path4168" />
                    <path
                          inkscape:connector-curvature="0"
                          id="path4176"
                          d="m 89.07098,708.26233 4.82617,-8.04297 15,5 c 0.5,0.16667 0.92847,0.4331 1.29883,0.7793 0.37035,0.34619 0.68233,0.77181 0.94922,1.25976 0.53378,0.97591 0.88703,2.19734 1.16406,3.51367 0.27703,1.31634 0.4773,2.72742 0.70703,4.08204 0.22973,1.35461 0.48896,2.65339 0.88086,3.74414 l 9.87695,6.56836 -1.87695,16.05273 -10,-15 -5,0 -5,-8 -15,-5 2,-4 0.17383,-0.95703 z"
                          style="fill:#9de400;fill-opacity:1;fill-rule:evenodd;stroke:none;stroke-width:0.2;stroke-linecap:butt;stroke-linejoin:miter;stroke-miterlimit:4;stroke-dasharray:none;stroke-opacity:1" />
                    <path
                          style="fill:#9de400;fill-opacity:1;fill-rule:evenodd;stroke:none;stroke-width:0.2;stroke-linecap:butt;stroke-linejoin:miter;stroke-miterlimit:4;stroke-dasharray:none;stroke-opacity:1"
                          d="m 109.12361,814.0621 13.08509,-19.47066 -0.63134,-22.41276 -19.0035,-28.22114 0.37881,-14.77348 c -3.946778,-5.1229 -11.00596,-7.63303 -18.823064,-8.04424 l -14.448833,22.50205 15.78363,3.85121 3.72494,11.11168 4.98763,1.38895 14.584077,31.50414 0.82075,19.5717 z"
                          id="path4175"
                          inkscape:connector-curvature="0"
                          sodipodi:nodetypes="ccccccccccccc" />
                    <path
                          sodipodi:nodetypes="ccccccccccccc"
                          inkscape:connector-curvature="0"
                          id="path4177"
                          d="m 329.7071,814.0621 -13.08509,-19.47066 0.63134,-22.41276 19.0035,-28.22114 -0.37881,-14.77348 c 3.94678,-5.1229 11.00596,-7.63303 18.82306,-8.04424 l 14.44884,22.50205 -15.78363,3.85121 -3.72494,11.11168 -4.98763,1.38895 -14.58408,31.50414 -0.82075,19.5717 z"
                          style="fill:#9de400;fill-opacity:1;fill-rule:evenodd;stroke:none;stroke-width:0.2;stroke-linecap:butt;stroke-linejoin:miter;stroke-miterlimit:4;stroke-dasharray:none;stroke-opacity:1" />
                    <path
                          style="fill:#9de400;fill-opacity:1;fill-rule:evenodd;stroke:none;stroke-width:0.2;stroke-linecap:butt;stroke-linejoin:miter;stroke-miterlimit:4;stroke-dasharray:none;stroke-opacity:1"
                          d="m 67.321433,749.68363 c -13.723319,17.88858 -24.377989,37.23072 -50.982147,49.01785 3.606349,15.35567 1.732923,31.0489 23.749999,44.19643 1.272568,0.75992 1.563023,4.20433 -1.964285,2.67857 -13.943092,-7.6083 -29.7121155,-24.33777 -36.629522,-57.23536 0.4022604,-22.74049 -7.4297992,-13.65836 -9.2176419,-10.35406 -17.5250131,32.38975 -33.1909881,81.7185 17.3650209,93.83942 10.429354,2.50046 20.72458,2.03596 29.464285,-0.71428 25.578729,-8.04918 41.683875,-25.33993 59.464281,-41.96429 2.581167,-6.26968 2.458017,-12.7852 2.499997,-19.28571 l -17.767847,-36.33929 1.51786,-11.51785 -2.5,-7.58929 z"
                          id="path4187"
                          inkscape:connector-curvature="0"
                          sodipodi:nodetypes="ccsccssscccccc" />
                    <path
                          sodipodi:nodetypes="ccsccssscccccc"
                          inkscape:connector-curvature="0"
                          id="path4189"
                          d="m 371.17611,749.68363 c 13.72332,17.88858 24.37799,37.23072 50.98214,49.01785 -3.60635,15.35567 -1.73292,31.0489 -23.75,44.19643 -1.27256,0.75992 -1.56302,4.20433 1.96429,2.67857 13.94309,-7.6083 29.71211,-24.33777 36.62952,-57.23536 -0.40226,-22.74049 7.4298,-13.65836 9.21764,-10.35406 17.52502,32.38975 33.19099,81.7185 -17.36502,93.83942 -10.42935,2.50046 -20.72458,2.03596 -29.46428,-0.71428 -25.57873,-8.04918 -41.68388,-25.33993 -59.46428,-41.96429 -2.58117,-6.26968 -2.45802,-12.7852 -2.5,-19.28571 l 17.76785,-36.33929 -1.51786,-11.51785 2.5,-7.58929 z"
                          style="fill:#9de400;fill-opacity:1;fill-rule:evenodd;stroke:none;stroke-width:0.2;stroke-linecap:butt;stroke-linejoin:miter;stroke-miterlimit:4;stroke-dasharray:none;stroke-opacity:1" />
               </g>
          </g>
     </g>
</svg>
