<?xml version="1.0" encoding="UTF-8" standalone="no"?>
<!-- Created with Inkscape (http://www.inkscape.org/) -->

<svg
   xmlns:dc="http://purl.org/dc/elements/1.1/"
   xmlns:cc="http://creativecommons.org/ns#"
   xmlns:rdf="http://www.w3.org/1999/02/22-rdf-syntax-ns#"
   xmlns:svg="http://www.w3.org/2000/svg"
   xmlns="http://www.w3.org/2000/svg"
   xmlns:sodipodi="http://sodipodi.sourceforge.net/DTD/sodipodi-0.dtd"
   xmlns:inkscape="http://www.inkscape.org/namespaces/inkscape"
   width="114.3634mm"
   height="137.68094mm"
   viewBox="0 0 405.22466 487.84585"
   id="svg5375"
   version="1.1"
   inkscape:version="0.91 r13725"
   sodipodi:docname="Icon.svg">
  <defs
     id="defs5377" />
  <sodipodi:namedview
     id="base"
     pagecolor="#ffffff"
     bordercolor="#666666"
     borderopacity="1.0"
     inkscape:pageopacity="0.0"
     inkscape:pageshadow="2"
     inkscape:zoom="0.70710678"
     inkscape:cx="321.83281"
     inkscape:cy="35.889313"
     inkscape:document-units="px"
     inkscape:current-layer="layer1"
     showgrid="false"
     fit-margin-top="0"
     fit-margin-left="0"
     fit-margin-right="0"
     fit-margin-bottom="0"
     inkscape:window-width="739"
     inkscape:window-height="391"
     inkscape:window-x="1269"
     inkscape:window-y="96"
     inkscape:window-maximized="0">
    <inkscape:grid
       type="xygrid"
       id="grid5934"
       originx="-8.9999998e-005"
       originy="-2.9573686e-007" />
  </sodipodi:namedview>
  <metadata
     id="metadata5380">
    <rdf:RDF>
      <cc:Work
         rdf:about="">
        <dc:format>image/svg+xml</dc:format>
        <dc:type
           rdf:resource="http://purl.org/dc/dcmitype/StillImage" />
        <dc:title></dc:title>
      </cc:Work>
    </rdf:RDF>
  </metadata>
  <g
     inkscape:label="Calque 1"
     inkscape:groupmode="layer"
     id="layer1"
     transform="translate(117.14277,-404.51631)">
    <g
       id="g6022">
      <g
         transform="translate(-21.072266,12.75396)"
         id="g5981">
        <path
           sodipodi:nodetypes="csscc"
           inkscape:connector-curvature="0"
           id="path5940"
           d="m 200.35714,706.36215 c 2.26345,0 2.94966,-0.71762 4.07143,-2.08036 2.27116,-2.75902 7.13301,-2.35289 10.08453,-0.98861 5.1094,2.36172 13.41707,1.02559 19.34404,-3.93103 -6,8 -13.03571,20 -33.5,20"
           style="fill:#791c9f;fill-opacity:1;fill-rule:evenodd;stroke:none;stroke-width:0.1;stroke-linecap:butt;stroke-linejoin:miter;stroke-miterlimit:4;stroke-dasharray:none;stroke-opacity:1" />
        <path
           style="fill:#791c9f;fill-opacity:1;fill-rule:evenodd;stroke:none;stroke-width:0.1;stroke-linecap:butt;stroke-linejoin:miter;stroke-miterlimit:4;stroke-dasharray:none;stroke-opacity:1"
           d="m 200.35714,706.36215 c -2.26345,0 -2.94966,-0.71762 -4.07143,-2.08036 -2.27116,-2.75902 -7.13301,-2.35289 -10.08453,-0.98861 -5.1094,2.36172 -13.41707,1.02559 -19.34404,-3.93103 6,8 13.03571,20 33.5,20"
           id="path5936"
           inkscape:connector-curvature="0"
           sodipodi:nodetypes="csscc" />
        <path
           inkscape:connector-curvature="0"
           style="fill:#ad4dd3;fill-opacity:1;fill-rule:evenodd;stroke:none;stroke-width:0.1;stroke-linecap:butt;stroke-linejoin:miter;stroke-miterlimit:4;stroke-dasharray:none;stroke-opacity:1"
           d="m 52.683594,340.42188 c 1.109698,3.00733 2.27569,5.9434 3.527344,8.76953 1.329167,3.00115 2.739252,5.89797 4.232421,8.68359 1.49317,2.78562 3.06926,5.46096 4.730469,8.01953 1.66121,2.55858 3.4089,5.00031 5.242188,7.32031 1.833287,2.32001 3.752316,4.51798 5.761718,6.58789 2.009403,2.06992 4.109273,4.01201 6.298828,5.82032 2.189556,1.8083 4.470004,3.4824 6.84375,5.01757 2.373747,1.53518 4.840369,2.93112 7.402344,4.18165 2.492337,1.21653 4.979884,2.31937 7.462894,3.31054 2.483,0.99117 4.96116,1.87003 7.43164,2.63672 2.47047,0.76669 4.93393,1.42176 7.38867,1.96485 2.45474,0.54308 4.90013,0.97456 7.33594,1.29492 2.4358,0.32035 4.86172,0.5304 7.27539,0.6289 2.41366,0.0985 4.81479,0.0854 7.20312,-0.0371 2.38833,-0.12246 4.76326,-0.3547 7.12305,-0.69726 2.35979,-0.34256 4.70516,-0.79564 7.0332,-1.35742 2.32804,-0.56179 4.63855,-1.2316 6.93164,-2.01172 2.2931,-0.78013 4.56927,-1.67038 6.82422,-2.66797 2.25495,-0.99759 4.48953,-2.10418 6.70313,-3.31836 2.2136,-1.21418 4.40517,-2.53495 6.57422,-3.96484 2.16904,-1.42989 4.3162,-2.96856 6.4375,-4.61329 2.12129,-1.64472 4.21677,-3.39522 6.28711,-5.2539 2.07033,-1.85868 4.11467,-3.82472 6.13085,-5.89649 2.01619,-2.07176 4.00407,-4.24924 5.96289,-6.5332 2.38379,-2.77947 4.45555,-5.53042 6.24415,-8.25586 1.78859,-2.72543 3.29533,-5.42557 4.55273,-8.10351 1.2574,-2.67795 2.26448,-5.3337 3.05469,-7.97071 0.7902,-2.63701 1.36298,-5.25675 1.75,-7.85937 0.38701,-2.60262 0.58889,-5.18889 0.63672,-7.76367 0.0478,-2.57478 -0.0578,-5.13792 -0.28516,-7.69141 -0.22736,-2.55349 -0.57708,-5.09798 -1.01563,-7.63672 -0.43854,-2.53874 -0.96701,-5.07102 -1.55273,-7.60156 -1.6957,-7.32609 -3.6146,-14.00148 -5.60351,-20.4043 -1.98892,-6.40281 -4.04797,-12.53274 -6.02149,-18.77148 -1.97351,-6.23874 -3.86223,-12.58606 -5.51172,-19.41993 -0.82474,-3.41693 -1.58952,-6.95599 -2.27539,-10.66406 -0.68587,-3.70806 -1.29236,-7.58559 -1.80078,-11.67968 -0.17312,3.83536 -0.2703,7.6547 -0.23633,11.48242 0.034,3.82772 0.19866,7.66483 0.55078,11.53515 0.35213,3.87032 0.89251,7.77511 1.67383,11.73828 0.78132,3.96318 1.80343,7.98553 3.125,12.0918 1.24863,3.87962 2.39263,7.77574 3.41992,11.6543 1.0273,3.87856 1.93953,7.73923 2.72071,11.54883 0.78117,3.80959 1.43307,7.56752 1.94336,11.24023 0.51028,3.67271 0.87719,7.25866 1.09179,10.72656 0.21461,3.46791 0.27577,6.81653 0.16992,10.01172 -0.10585,3.19519 -0.37703,6.23724 -0.82812,9.0918 -0.45109,2.85455 -1.08124,5.52275 -1.90234,7.96875 -0.82111,2.446 -1.83489,4.67109 -3.05079,6.64062 -2.1196,3.43339 -4.3532,6.63556 -6.68164,9.61914 -2.32843,2.98359 -4.75129,5.74842 -7.25,8.30274 -2.4987,2.55431 -5.07272,4.89935 -7.70312,7.04492 -2.63041,2.14557 -5.31747,4.0903 -8.04102,5.84766 -2.72354,1.75735 -5.4836,3.32713 -8.26172,4.71679 -2.77811,1.38967 -5.57305,2.60008 -8.36718,3.64258 -2.79413,1.04251 -5.5878,1.91694 -8.35938,2.63281 -2.77157,0.71587 -5.52196,1.27384 -8.23242,1.6836 -2.71046,0.40976 -5.37946,0.67074 -7.99023,0.79492 -2.61078,0.12418 -5.16224,0.11157 -7.63477,-0.0293 -2.47253,-0.14087 -4.86639,-0.40952 -7.16211,-0.79492 -2.29572,-0.38539 -4.49387,-0.88865 -6.57422,-1.49805 -2.08034,-0.60939 -4.04273,-1.3258 -5.86914,-2.13867 -1.82641,-0.81286 -3.51688,-1.72099 -5.05078,-2.71679 -1.5339,-0.99581 -2.9124,-2.07811 -4.11523,-3.23633 -1.202843,-1.15823 -2.229296,-2.39325 -3.062504,-3.69336 3.522854,1.03688 7.219774,1.83313 11.035154,2.33789 3.81538,0.50476 7.74761,0.71766 11.74414,0.58789 1.99827,-0.0649 4.01249,-0.21431 6.03516,-0.45703 2.02267,-0.24272 4.05474,-0.57836 6.08789,-1.01172 2.03315,-0.43336 4.06795,-0.96477 6.09766,-1.60156 2.0297,-0.6368 4.05406,-1.37939 6.0664,-2.23243 2.01235,-0.85303 4.01308,-1.81636 5.99414,-2.89843 1.98106,-1.08208 3.94306,-2.28155 5.87891,-3.60547 1.93585,-1.32392 3.84594,-2.773 5.72266,-4.35156 1.87671,-1.57857 3.71977,-3.28681 5.52343,-5.13282 1.80367,-1.846 3.56652,-3.82882 5.28321,-5.95507 1.71669,-2.12626 3.38616,-4.39711 5.00195,-6.81641 1.61579,-2.4193 3.17872,-4.98774 4.67969,-7.71289 1.50097,-2.72515 2.94027,-5.60659 4.3125,-8.65039 0.89011,-1.9744 1.67293,-3.93546 2.35351,-5.88477 0.68058,-1.9493 1.25972,-3.88672 1.7461,-5.8125 0.48637,-1.92577 0.87999,-3.84033 1.1875,-5.74414 0.3075,-1.90381 0.52791,-3.79628 0.67187,-5.67969 0.28791,-3.76681 0.26454,-7.49488 -0.01,-11.18945 -0.27431,-3.69457 -0.79978,-7.35541 -1.51368,-10.99023 -0.7139,-3.63483 -1.61561,-7.24445 -2.64648,-10.83203 -1.03087,-3.58758 -2.1908,-7.1542 -3.41602,-10.70704 -2.45044,-7.10566 -5.16612,-14.15364 -7.6582,-21.19531 -1.38796,-3.92183 -2.63118,-7.84713 -3.7168,-11.77539 -1.08562,-3.92825 -2.01373,-7.85961 -2.76953,-11.79297 -0.7558,-3.93335 -1.33977,-7.86952 -1.73828,-11.80664 -0.39851,-3.93712 -0.61125,-7.87489 -0.625,-11.81445 -0.0137,-3.93956 0.17182,-7.87965 0.57031,-11.82031 0.3985,-3.94067 1.00944,-7.88183 1.84766,-11.82227 0.83822,-3.94044 1.90357,-7.88142 3.20898,-11.82031 1.30541,-3.93889 2.85031,-7.87649 4.65039,-11.8125 -1.70765,3.21341 -3.32134,6.47232 -4.81835,9.78906 -1.49702,3.31674 -2.8767,6.69126 -4.11133,10.13672 -1.23464,3.44546 -2.32558,6.96099 -3.2461,10.56055 -0.92051,3.59955 -1.66996,7.28346 -2.22461,11.0625 -0.55464,3.77903 -0.91374,7.65477 -1.05078,11.63867 -0.13704,3.9839 -0.053,8.07687 0.2793,12.29101 0.33231,4.21415 0.91222,8.54976 1.76562,13.01953 0.85341,4.46978 1.98002,9.07343 3.40625,13.82422 -1.69197,-1.89229 -3.23084,-3.92659 -4.6289,-6.09179 -1.39806,-2.16521 -2.65428,-4.46184 -3.78321,-6.87696 -1.12892,-2.41512 -2.1291,-4.94976 -3.01367,-7.59179 -0.88456,-2.64203 -1.65339,-5.39235 -2.31836,-8.23828 -0.66497,-2.84594 -1.22711,-5.78762 -1.69726,-8.81446 -0.47015,-3.02684 -0.84834,-6.13752 -1.14844,-9.32226 -0.5497,-5.8336 -0.77623,-11.96658 -0.87305,-18.22071 -4.59057,24.36749 -0.17795,48.09667 12.9375,70.03321 22.51291,37.65443 29.6488,57.83045 11.61719,91.54492 -29.50556,55.16781 -95.951593,39.81947 -123.341796,1.25586 0.0018,0.01 0.0041,0.0195 0.0059,0.0293 z"
           id="path5963"
           transform="translate(-117.14286,380.36218)" />
        <path
           inkscape:connector-curvature="0"
           style="fill:#ad4dd3;fill-opacity:1;fill-rule:evenodd;stroke:none;stroke-width:0.1;stroke-linecap:butt;stroke-linejoin:miter;stroke-miterlimit:4;stroke-dasharray:none;stroke-opacity:1"
           d="m 99.304688,467.7832 c 2.677202,0.10424 5.444532,0.12454 8.294922,0.0449 2.93362,-0.0819 5.94651,-0.26235 9.01758,-0.54492 3.07106,-0.28257 6.19947,-0.66708 9.36133,-1.15625 3.16185,-0.48916 6.35846,-1.08344 9.56445,-1.78515 3.20599,-0.70172 6.42154,-1.50945 9.625,-2.42969 3.20346,-0.92024 6.39455,-1.95294 9.54883,-3.09766 3.15427,-1.14471 6.27165,-2.40218 9.33008,-3.77734 3.05842,-1.37516 6.05673,-2.86694 8.97265,-4.47852 2.91592,-1.61157 5.74981,-3.34332 8.47656,-5.19726 2.72676,-1.85395 5.34696,-3.83131 7.83789,-5.9336 2.49094,-2.10228 4.8521,-4.32896 7.06055,-6.68554 2.20845,-2.35658 4.26327,-4.84214 6.14258,-7.45899 1.87931,-2.61684 3.58243,-5.36497 5.08594,-8.24804 1.5035,-2.88308 2.80763,-5.90138 3.88867,-9.05664 1.08104,-3.15527 1.94081,-6.44745 2.55273,-9.88086 0.61193,-3.43342 0.97613,-7.00708 1.07227,-10.72461 l -11.3125,8.30859 c -1.41802,4.48894 -2.99346,8.54648 -4.70313,12.22852 -1.70966,3.68204 -3.55416,6.98723 -5.51562,9.97265 -1.96146,2.98542 -4.0395,5.64975 -6.21289,8.04883 -2.17339,2.39908 -4.44165,4.53403 -6.78711,6.45703 -2.34546,1.92301 -4.76842,3.63419 -7.24609,5.19141 -2.47768,1.55721 -5.01005,2.96002 -7.58008,4.26172 -5.14007,2.60339 -10.42498,4.80585 -15.69532,7.04882 3.6167,-3.22598 6.78118,-6.38605 9.54297,-9.48632 2.7618,-3.10027 5.11954,-6.13987 7.125,-9.12891 2.00547,-2.98904 3.65817,-5.92605 5.00586,-8.81836 1.3477,-2.89231 2.3912,-5.74071 3.17969,-8.55078 l -7.26562,2.90039 c -13.98702,29.16269 -40.86589,40.98828 -68.367192,51.97656 z"
           id="path5975"
           transform="translate(-117.14286,380.36218)" />
        <path
           inkscape:connector-curvature="0"
           style="fill:#791c9f;fill-opacity:1;fill-rule:evenodd;stroke:none;stroke-width:0.1;stroke-linecap:butt;stroke-linejoin:miter;stroke-miterlimit:4;stroke-dasharray:none;stroke-opacity:1"
           d="m 209.48047,179.66016 c -1.10742,2.1975 -2.16154,4.48361 -3.14453,6.89062 -0.98299,2.40701 -1.89528,4.93533 -2.71875,7.61719 -0.82348,2.68186 -1.55862,5.51701 -2.1875,8.53906 -0.62889,3.02205 -1.15157,6.23062 -1.55078,9.6582 -0.39922,3.42759 -0.67413,7.07421 -0.8086,10.97266 -0.0176,0.51056 0.0166,1.11549 0.004,1.63477 0.49499,3.90572 1.06936,7.63831 1.72656,11.1914 0.68587,3.70807 1.45065,7.24713 2.27539,10.66406 1.64949,6.83387 3.53821,13.18119 5.51172,19.41993 1.97352,6.23874 4.03256,12.36867 6.02149,18.77148 1.98891,6.40282 3.90781,13.07821 5.60351,20.4043 0.58572,2.53054 1.1142,5.06282 1.55273,7.60156 0.43855,2.53874 0.78827,5.08323 1.01563,7.63672 0.22736,2.55349 0.33298,5.11663 0.28516,7.69141 -0.0478,2.57478 -0.24971,5.16105 -0.63672,7.76367 -0.38702,2.60262 -0.9598,5.22236 -1.75,7.85937 -0.79021,2.63701 -1.79729,5.29276 -3.05469,7.97071 -1.2574,2.67794 -2.76414,5.37808 -4.55273,8.10351 -1.7886,2.72544 -3.86036,5.47639 -6.24415,8.25586 -1.95882,2.28396 -3.9467,4.46144 -5.96289,6.5332 -2.01618,2.07177 -4.06052,4.03781 -6.13085,5.89649 -2.07034,1.85868 -4.16582,3.60918 -6.28711,5.2539 -2.1213,1.64473 -4.26846,3.1834 -6.4375,4.61329 -2.16905,1.42989 -4.36062,2.75066 -6.57422,3.96484 -2.2136,1.21418 -4.44818,2.32077 -6.70313,3.31836 -2.25495,0.99759 -4.53112,1.88784 -6.82422,2.66797 -2.29309,0.78012 -4.6036,1.44993 -6.93164,2.01172 -2.32804,0.56178 -4.67341,1.01486 -7.0332,1.35742 -2.35979,0.34256 -4.73472,0.5748 -7.12305,0.69726 -2.38833,0.12247 -4.78946,0.13563 -7.20312,0.0371 -2.41367,-0.0985 -4.83959,-0.30855 -7.27539,-0.6289 -2.43581,-0.32036 -4.8812,-0.75185 -7.33594,-1.29492 -2.45474,-0.5431 -4.9182,-1.19816 -7.38867,-1.96485 -2.47048,-0.76669 -4.94864,-1.64555 -7.43164,-2.63672 -2.48301,-0.99117 -4.970557,-2.09401 -7.462894,-3.31054 -2.561975,-1.25053 -5.028597,-2.64647 -7.402344,-4.18165 -2.373744,-1.53516 -4.654194,-3.20927 -6.84375,-5.01757 -2.189554,-1.80831 -4.289425,-3.7504 -6.298828,-5.82032 -2.009402,-2.06991 -3.928431,-4.26788 -5.761718,-6.58789 -1.833288,-2.32 -3.580978,-4.76173 -5.242188,-7.32031 -1.661209,-2.55857 -3.237299,-5.23391 -4.730469,-8.01953 -1.493169,-2.78562 -2.903255,-5.68244 -4.232421,-8.68359 -1.251655,-2.82613 -2.417646,-5.76222 -3.527344,-8.76953 1.763292,9.81164 2.717206,19.6239 8.566406,29.43554 -15.707279,-3.43313 -28.237102,-11.63174 -40.177734,-20.71484 37.606407,51.94016 84.787794,78.61191 146.613284,66.64062 -0.004,0.008 -0.01,0.015 -0.0137,0.0234 l 7.26562,-2.90039 c -0.78849,2.81007 -1.83199,5.65847 -3.17969,8.55078 -1.34769,2.89231 -3.00039,5.82932 -5.00586,8.81836 -2.00546,2.98904 -4.3632,6.02864 -7.125,9.12891 -2.76179,3.10027 -5.92627,6.26034 -9.54297,9.48632 5.27034,-2.24297 10.55525,-4.44543 15.69532,-7.04882 2.57003,-1.3017 5.1024,-2.70451 7.58008,-4.26172 2.47767,-1.55722 4.90063,-3.2684 7.24609,-5.19141 2.34546,-1.923 4.61372,-4.05795 6.78711,-6.45703 2.17339,-2.39908 4.25143,-5.06341 6.21289,-8.04883 1.96146,-2.98542 3.80596,-6.29061 5.51562,-9.97265 1.70967,-3.68204 3.28511,-7.73958 4.70313,-12.22852 l 11.3125,-8.30859 c -0.0961,3.71753 -0.46034,7.29119 -1.07227,10.72461 -0.61192,3.43341 -1.47169,6.72559 -2.55273,9.88086 -1.08104,3.15526 -2.38517,6.17356 -3.88867,9.05664 -1.50351,2.88307 -3.20663,5.6312 -5.08594,8.24804 -1.87931,2.61685 -3.93413,5.10241 -6.14258,7.45899 -2.20845,2.35658 -4.56961,4.58326 -7.06055,6.68554 -2.49093,2.10229 -5.11113,4.07965 -7.83789,5.9336 -2.72675,1.85394 -5.56064,3.58569 -8.47656,5.19726 -2.91592,1.61158 -5.91423,3.10336 -8.97265,4.47852 -3.05843,1.37516 -6.17581,2.63263 -9.33008,3.77734 -3.15428,1.14472 -6.34537,2.17742 -9.54883,3.09766 -3.20346,0.92024 -6.41901,1.72797 -9.625,2.42969 -3.20599,0.70171 -6.4026,1.29599 -9.56445,1.78515 -3.16186,0.48917 -6.29027,0.87368 -9.36133,1.15625 -3.07107,0.28257 -6.08396,0.46298 -9.01758,0.54492 -2.85039,0.0796 -5.61772,0.0593 -8.294922,-0.0449 -0.01908,0.008 -0.03756,0.0158 -0.05664,0.0234 4.650772,3.13685 11.826952,4.12564 19.824222,4.41797 -12.97161,10.12072 -25.988132,20.19203 -41.921878,27.02148 86.932758,-17.83924 169.933158,-39.46746 165.791018,-145.08203 -1.99596,2.74039 -3.71379,5.52606 -5.70703,8.25586 -0.99663,1.3649 -2.06221,2.71609 -3.26563,4.04102 -1.20342,1.32493 -2.54522,2.62272 -4.09375,3.88281 1.68372,-2.76021 3.19696,-5.43754 4.55273,-8.03906 1.35578,-2.60152 2.55443,-5.12788 3.60547,-7.58203 1.05105,-2.45416 1.95507,-4.83619 2.72461,-7.1543 0.76955,-2.31812 1.40475,-4.57223 1.91602,-6.76563 0.51127,-2.1934 0.89956,-4.32623 1.17578,-6.40625 0.27622,-2.08001 0.43952,-4.10603 0.50391,-6.08398 0.0644,-1.97795 0.0285,-3.90771 -0.0957,-5.79492 -0.12421,-1.88721 -0.33735,-3.73322 -0.62695,-5.54102 -0.57919,-3.61559 -1.46504,-7.08332 -2.56641,-10.44922 -1.10137,-3.36589 -2.41771,-6.62913 -3.85547,-9.83593 -2.8755,-6.4136 -6.23748,-12.59908 -9.34375,-18.91993 -2.00381,-4.0775 -3.87849,-8.14049 -5.61523,-12.19336 -1.73674,-4.05286 -3.33504,-8.09591 -4.78516,-12.13671 -1.45011,-4.0408 -2.75255,-8.07978 -3.89648,-12.1211 -1.14393,-4.04132 -2.12908,-8.08621 -2.94727,-12.14062 -0.81818,-4.05442 -1.46852,-8.11718 -1.9414,-12.19727 -0.47289,-4.08009 -0.76893,-8.17657 -0.87696,-12.29492 -0.10802,-4.11835 -0.0283,-8.25855 0.24805,-12.42773 0.27638,-4.16919 0.74934,-8.36701 1.42969,-12.59961 z"
           id="path5970"
           transform="translate(-117.14286,380.36218)" />
        <path
           inkscape:connector-curvature="0"
           style="fill:#791c9f;fill-opacity:1;fill-rule:evenodd;stroke:none;stroke-width:0.1;stroke-linecap:butt;stroke-linejoin:miter;stroke-miterlimit:4;stroke-dasharray:none;stroke-opacity:1"
           d="m 163.11914,144.61719 c -5.71606,11.04187 -9.60323,22.05401 -11.6543,32.9414 0.0968,6.25413 0.32335,12.38711 0.87305,18.22071 0.3001,3.18474 0.67829,6.29542 1.14844,9.32226 0.47015,3.02684 1.03229,5.96852 1.69726,8.81446 0.66497,2.84593 1.4338,5.59625 2.31836,8.23828 0.88457,2.64203 1.88476,5.17667 3.01367,7.59179 1.12893,2.41512 2.38515,4.71175 3.78321,6.87696 1.39806,2.1652 2.93693,4.1995 4.6289,6.09179 -1.42623,-4.75079 -2.55284,-9.35444 -3.40625,-13.82422 -0.8534,-4.46977 -1.43331,-8.80538 -1.76562,-13.01953 -0.33231,-4.21414 -0.41634,-8.30711 -0.2793,-12.29101 0.13704,-3.9839 0.49614,-7.85964 1.05078,-11.63867 0.55465,-3.77904 1.3041,-7.46295 2.22461,-11.0625 0.92052,-3.59956 2.01146,-7.11509 3.2461,-10.56055 1.23463,-3.44546 2.6143,-6.81998 4.11133,-10.13672 1.497,-3.31674 3.1107,-6.57565 4.81835,-9.78906 -1.80008,3.93601 -3.34498,7.87361 -4.65039,11.8125 -1.30541,3.93889 -2.37076,7.87987 -3.20898,11.82031 -0.83822,3.94044 -1.44916,7.8816 -1.84766,11.82227 -0.39849,3.94066 -0.58405,7.88075 -0.57031,11.82031 0.0138,3.93956 0.22649,7.87733 0.625,11.81445 0.39851,3.93712 0.98248,7.87329 1.73828,11.80664 0.7558,3.93336 1.68391,7.86472 2.76953,11.79297 1.08562,3.92826 2.32884,7.85356 3.7168,11.77539 2.49208,7.04167 5.20776,14.08965 7.6582,21.19531 1.22522,3.55284 2.38515,7.11946 3.41602,10.70704 1.03087,3.58758 1.93258,7.1972 2.64648,10.83203 0.7139,3.63482 1.23937,7.29566 1.51368,10.99023 0.2743,3.69457 0.29743,7.42264 0.01,11.18945 -0.14396,1.88341 -0.36437,3.77588 -0.67187,5.67969 -0.30751,1.90381 -0.70113,3.81837 -1.1875,5.74414 -0.48638,1.92578 -1.06552,3.8632 -1.7461,5.8125 -0.68058,1.94931 -1.4634,3.91037 -2.35351,5.88477 -1.37223,3.0438 -2.81153,5.92524 -4.3125,8.65039 -1.50097,2.72515 -3.0639,5.29359 -4.67969,7.71289 -1.61579,2.4193 -3.28526,4.69015 -5.00195,6.81641 -1.71669,2.12625 -3.47954,4.10907 -5.28321,5.95507 -1.80366,1.84601 -3.64672,3.55425 -5.52343,5.13282 -1.87673,1.57856 -3.78681,3.02764 -5.72266,4.35156 -1.93585,1.32392 -3.89785,2.52339 -5.87891,3.60547 -1.98106,1.08207 -3.98179,2.0454 -5.99414,2.89843 -2.01234,0.85305 -4.0367,1.59563 -6.0664,2.23243 -2.02971,0.63679 -4.06451,1.1682 -6.09766,1.60156 -2.03315,0.43336 -4.06522,0.769 -6.08789,1.01172 -2.02267,0.24272 -4.03689,0.39214 -6.03516,0.45703 -3.99653,0.12977 -7.92876,-0.0831 -11.74414,-0.58789 -3.81538,-0.50476 -7.5123,-1.30101 -11.035154,-2.33789 0.833208,1.30011 1.859657,2.53513 3.062504,3.69336 1.20283,1.15822 2.58133,2.24052 4.11523,3.23633 1.5339,0.9958 3.22437,1.90393 5.05078,2.71679 1.82641,0.81287 3.7888,1.52928 5.86914,2.13867 2.08035,0.6094 4.2785,1.11266 6.57422,1.49805 2.29572,0.3854 4.68958,0.65405 7.16211,0.79492 2.47253,0.14087 5.02399,0.15348 7.63477,0.0293 2.61077,-0.12418 5.27977,-0.38516 7.99023,-0.79492 2.71046,-0.40976 5.46085,-0.96773 8.23242,-1.6836 2.77158,-0.71587 5.56525,-1.5903 8.35938,-2.63281 2.79413,-1.0425 5.58907,-2.25291 8.36718,-3.64258 2.77812,-1.38966 5.53818,-2.95944 8.26172,-4.71679 2.72355,-1.75736 5.41061,-3.70209 8.04102,-5.84766 2.6304,-2.14557 5.20442,-4.49061 7.70312,-7.04492 2.49871,-2.55432 4.92157,-5.31915 7.25,-8.30274 2.32844,-2.98358 4.56204,-6.18575 6.68164,-9.61914 1.2159,-1.96953 2.22968,-4.19462 3.05079,-6.64062 0.8211,-2.446 1.45125,-5.1142 1.90234,-7.96875 0.45109,-2.85456 0.72227,-5.89661 0.82812,-9.0918 0.10585,-3.19519 0.0447,-6.54381 -0.16992,-10.01172 -0.2146,-3.4679 -0.58151,-7.05385 -1.09179,-10.72656 -0.51029,-3.67271 -1.16219,-7.43064 -1.94336,-11.24023 -0.78118,-3.8096 -1.69341,-7.67027 -2.72071,-11.54883 -1.02729,-3.87856 -2.17129,-7.77468 -3.41992,-11.6543 -1.08567,-3.37329 -1.8524,-6.65984 -2.5664,-9.93359 0.22175,1.60851 0.34321,3.03758 0.59765,4.70508 -2.23624,-3.87576 -4.26691,-7.7472 -6.10547,-11.60352 -1.83855,-3.85632 -3.48553,-7.69762 -4.95508,-11.51562 -1.46955,-3.81801 -2.76139,-7.61223 -3.89062,-11.37305 -1.12923,-3.76083 -2.09647,-7.48711 -2.91406,-11.17188 -0.8176,-3.68476 -1.48489,-7.32813 -2.01953,-10.91797 -0.53465,-3.58983 -0.93642,-7.12748 -1.2168,-10.60351 -0.28039,-3.47603 -0.43934,-6.88907 -0.49414,-10.23242 -0.0548,-3.34335 -0.005,-6.6168 0.13672,-9.8086 0.14208,-3.19179 0.37525,-6.30285 0.68554,-9.32422 0.3103,-3.02136 0.69862,-5.95309 1.14844,-8.78515 0.89964,-5.66414 2.04836,-10.93093 3.33399,-15.72461 1.28562,-4.79368 2.70826,-9.11448 4.15039,-12.88672 1.44212,-3.77224 2.90428,-6.99591 4.27343,-9.5957 -2.96975,3.03409 -5.89896,6.13851 -8.76757,9.34961 -2.86861,3.21109 -5.6759,6.52888 -8.40039,9.99218 -2.7245,3.46331 -5.3669,7.07258 -7.9043,10.86328 -2.53741,3.79071 -4.97,7.76372 -7.27735,11.95704 -0.22498,-2.05068 -0.27973,-4.13051 -0.2207,-6.22852 0.059,-2.09801 0.23091,-4.21528 0.46094,-6.3418 0.27089,-2.5043 0.6138,-5.01977 0.95117,-7.53515 z"
           id="path5968"
           transform="translate(-117.14286,380.36218)" />
        <path
           inkscape:connector-curvature="0"
           style="fill:#422745;fill-opacity:1;fill-rule:evenodd;stroke:none;stroke-width:0.1;stroke-linecap:butt;stroke-linejoin:miter;stroke-miterlimit:4;stroke-dasharray:none;stroke-opacity:1"
           d="m 163.11914,144.61719 c -0.33737,2.51538 -0.68028,5.03085 -0.95117,7.53515 -0.23003,2.12652 -0.4019,4.24379 -0.46094,6.3418 -0.059,2.09801 -0.004,4.17784 0.2207,6.22852 2.30735,-4.19332 4.73994,-8.16633 7.27735,-11.95704 2.5374,-3.7907 5.1798,-7.39997 7.9043,-10.86328 2.72449,-3.4633 5.53178,-6.78109 8.40039,-9.99218 2.86861,-3.2111 5.79782,-6.31552 8.76757,-9.34961 -1.36915,2.59979 -2.83131,5.82346 -4.27343,9.5957 -1.44213,3.77224 -2.86477,8.09304 -4.15039,12.88672 -1.28563,4.79368 -2.43435,10.06047 -3.33399,15.72461 -0.44982,2.83206 -0.83814,5.76379 -1.14844,8.78515 -0.31029,3.02137 -0.54346,6.13243 -0.68554,9.32422 -0.14209,3.1918 -0.19153,6.46525 -0.13672,9.8086 0.0548,3.34335 0.21375,6.75639 0.49414,10.23242 0.28038,3.47603 0.68215,7.01368 1.2168,10.60351 0.53464,3.58984 1.20193,7.23321 2.01953,10.91797 0.81759,3.68477 1.78483,7.41105 2.91406,11.17188 1.12923,3.76082 2.42107,7.55504 3.89062,11.37305 1.46955,3.818 3.11653,7.6593 4.95508,11.51562 1.83856,3.85632 3.86923,7.72776 6.10547,11.60352 -0.25444,-1.6675 -0.3759,-3.09657 -0.59765,-4.70508 -0.15515,-0.71135 -0.41913,-1.45077 -0.5586,-2.15821 -0.78132,-3.96317 -1.3217,-7.86796 -1.67383,-11.73828 -0.35212,-3.87032 -0.5168,-7.70743 -0.55078,-11.53515 -0.034,-3.82772 0.0632,-7.64707 0.23633,-11.48242 0.0213,0.1711 0.0526,0.31793 0.0742,0.48828 0.0127,-0.51928 -0.0215,-1.12421 -0.004,-1.63477 0.13447,-3.89845 0.40938,-7.54507 0.8086,-10.97266 0.39921,-3.42758 0.92189,-6.63615 1.55078,-9.6582 0.62888,-3.02205 1.36402,-5.8572 2.1875,-8.53906 0.82347,-2.68186 1.73576,-5.21018 2.71875,-7.61719 0.98299,-2.40701 2.03711,-4.69312 3.14453,-6.89062 -0.68035,4.2326 -1.15331,8.43042 -1.42969,12.59961 -0.27638,4.16918 -0.35607,8.30938 -0.24805,12.42773 0.10803,4.11835 0.40407,8.21483 0.87696,12.29492 0.47288,4.08009 1.12322,8.14285 1.9414,12.19727 0.81819,4.05441 1.80334,8.0993 2.94727,12.14062 1.14393,4.04132 2.44637,8.0803 3.89648,12.1211 1.45012,4.0408 3.04842,8.08385 4.78516,12.13671 1.73674,4.05287 3.61142,8.11586 5.61523,12.19336 3.10627,6.32085 6.46825,12.50633 9.34375,18.91993 1.43776,3.2068 2.7541,6.47004 3.85547,9.83593 1.10137,3.3659 1.98722,6.83363 2.56641,10.44922 0.2896,1.8078 0.50274,3.65381 0.62695,5.54102 0.12422,1.88721 0.16009,3.81697 0.0957,5.79492 -0.0644,1.97795 -0.22769,4.00397 -0.50391,6.08398 -0.27622,2.08002 -0.66451,4.21285 -1.17578,6.40625 -0.51127,2.1934 -1.14647,4.44751 -1.91602,6.76563 -0.76954,2.31811 -1.67356,4.70014 -2.72461,7.1543 -1.05104,2.45415 -2.24969,4.98051 -3.60547,7.58203 -1.35577,2.60152 -2.86901,5.27885 -4.55273,8.03906 1.54853,-1.26009 2.89033,-2.55788 4.09375,-3.88281 1.20342,-1.32493 2.269,-2.67612 3.26563,-4.04102 1.99324,-2.7298 3.71107,-5.51547 5.70703,-8.25586 16.50666,-34.66831 4.5916,-60.25273 -2.52539,-85.99023 -9.05051,-32.72978 -13.65292,-65.67328 7.44921,-101.89844 14.99232,-25.73671 54.44341,-9.64391 61.6211,7.44922 6.31999,-10.36878 5.4021,-21.39406 6.94336,-32.19727 l 8.46093,10.35352 c 6.66895,-12.53335 9.68301,-26.89518 12.62696,-41.29102 l 9.5957,8.9668 C 359.70285,91.663892 361.43069,68.001351 357.3418,47.582031 354.16622,31.723631 343.644,33.693359 328.42578,33.693359 l -7.44922,-13.132812 c -4.31171,-7.600295 -10.92143,-9.75509 -18.00976,-9.027344 -7.08833,0.727746 -14.65503,4.337841 -20.88086,8.269531 -50.49205,31.88632 -88.73231,73.813068 -114.65235,116.925786 -1.58188,2.63114 -2.9536,5.25987 -4.31445,7.88867 z"
           id="path5942"
           transform="translate(-117.14286,380.36218)" />
        <g
           id="g5948"
           style="stroke:none">
          <path
             sodipodi:nodetypes="cccc"
             inkscape:connector-curvature="0"
             id="path5944"
             d="m 181.60976,623.28276 c -8.52948,-7.841 -18.03078,-15.26552 -28.91562,-22.09708 l -10.85914,6.56599 c 14.42071,3.62709 27.36379,9.22434 39.77476,15.53109 z"
             style="fill:#422745;fill-opacity:1;fill-rule:evenodd;stroke:none;stroke-width:1px;stroke-linecap:butt;stroke-linejoin:miter;stroke-opacity:1" />
          <path
             sodipodi:nodetypes="cccc"
             inkscape:connector-curvature="0"
             id="path5946"
             d="m 136.34229,605.92077 11.42735,-7.38675 c -11.46849,-10.22732 -23.81277,-0.86448 -27.77919,4.79823 6.2327,0.27016 11.75814,0.61623 16.35184,2.58852 z"
             style="fill:#422745;fill-opacity:1;fill-rule:evenodd;stroke:none;stroke-width:1px;stroke-linecap:butt;stroke-linejoin:miter;stroke-opacity:1" />
        </g>
        <g
           id="g5952"
           transform="matrix(-1,0,0,1,399.60021,0)"
           style="stroke:none">
          <path
             style="fill:#422745;fill-opacity:1;fill-rule:evenodd;stroke:none;stroke-width:1px;stroke-linecap:butt;stroke-linejoin:miter;stroke-opacity:1"
             d="m 181.60976,623.28276 c -8.52948,-7.841 -18.03078,-15.26552 -28.91562,-22.09708 l -10.85914,6.56599 c 14.42071,3.62709 27.36379,9.22434 39.77476,15.53109 z"
             id="path5954"
             inkscape:connector-curvature="0"
             sodipodi:nodetypes="cccc" />
          <path
             style="fill:#422745;fill-opacity:1;fill-rule:evenodd;stroke:none;stroke-width:1px;stroke-linecap:butt;stroke-linejoin:miter;stroke-opacity:1"
             d="m 136.34229,605.92077 11.42735,-7.38675 c -11.46849,-10.22732 -23.81277,-0.86448 -27.77919,4.79823 6.2327,0.27016 11.75814,0.61623 16.35184,2.58852 z"
             id="path5956"
             inkscape:connector-curvature="0"
             sodipodi:nodetypes="cccc" />
        </g>
        <path
           style="fill:#791c9f;fill-opacity:1;fill-rule:evenodd;stroke:none;stroke-width:1px;stroke-linecap:butt;stroke-linejoin:miter;stroke-opacity:1"
           d="m 250.60714,518.61215 6.875,6.4375 11.375,-12.125 c 1.97522,-0.18139 3.98449,-0.0563 6.125,1.25 l 19.75,-19.0625 -9.5625,-15 c -13.31513,12.12506 -27.35071,23.96573 -34.5625,38.5 z"
           id="path5977"
           inkscape:connector-curvature="0"
           sodipodi:nodetypes="ccccccc" />
        <path
           style="fill:#791c9f;fill-opacity:1;fill-rule:evenodd;stroke:none;stroke-width:1px;stroke-linecap:butt;stroke-linejoin:miter;stroke-opacity:1"
           d="m 273.00331,545.08433 4.59619,9.36917 11.49048,-7.6014 c 2.0528,0.24395 3.83945,1.20194 5.65686,3.09359 l 14.4073,-10.69499 -3.53553,-17.76606 c -11.25696,7.20624 -22.9197,13.71684 -32.6153,23.59969 z"
           id="path5979"
           inkscape:connector-curvature="0"
           sodipodi:nodetypes="ccccccc" />
      </g>
    </g>
  </g>
</svg>
